<svg width="154" height="28" viewBox="0 0 154 28" fill="none" xmlns="http://www.w3.org/2000/svg">
<path d="M7.668 27V6.264H0.54V1.8H19.404V6.264H12.276V27H7.668ZM26.2333 27V9H30.4093L30.5173 10.908C30.9733 10.404 31.6153 9.9 32.4433 9.396C33.2713 8.892 34.1773 8.64 35.1613 8.64C35.4493 8.64 35.7133 8.664 35.9533 8.712L35.6293 13.104C35.3653 13.032 35.1013 12.984 34.8373 12.96C34.5853 12.936 34.3333 12.924 34.0813 12.924C33.3253 12.924 32.6353 13.098 32.0113 13.446C31.3873 13.794 30.9493 14.22 30.6973 14.724V27H26.2333ZM48.9932 27.36C48.0332 27.36 47.1572 27.15 46.3652 26.73C45.5732 26.298 44.9432 25.68 44.4752 24.876C44.0072 24.072 43.7732 23.1 43.7732 21.96C43.7732 20.94 44.0072 20.07 44.4752 19.35C44.9552 18.618 45.5792 18.012 46.3472 17.532C47.1272 17.04 47.9672 16.656 48.8672 16.38C49.7792 16.092 50.6732 15.882 51.5492 15.75C52.4372 15.618 53.2172 15.54 53.8892 15.516C53.8412 14.484 53.5772 13.734 53.0972 13.266C52.6172 12.798 51.8012 12.564 50.6492 12.564C49.8452 12.564 49.0592 12.678 48.2912 12.906C47.5352 13.122 46.6772 13.464 45.7172 13.932L45.3212 10.296C46.4012 9.768 47.4812 9.372 48.5612 9.108C49.6532 8.844 50.7572 8.712 51.8732 8.712C53.2172 8.712 54.3752 8.952 55.3472 9.432C56.3192 9.912 57.0692 10.686 57.5972 11.754C58.1252 12.81 58.3892 14.208 58.3892 15.948V20.808C58.3892 21.708 58.4312 22.362 58.5152 22.77C58.5992 23.166 58.7552 23.418 58.9832 23.526C59.2112 23.634 59.5412 23.688 59.9732 23.688H60.5492L60.1532 27.36H58.5332C57.8612 27.36 57.2612 27.27 56.7332 27.09C56.2172 26.922 55.7732 26.682 55.4012 26.37C55.0292 26.058 54.7292 25.692 54.5012 25.272C53.9132 25.932 53.1152 26.448 52.1072 26.82C51.1112 27.18 50.0732 27.36 48.9932 27.36ZM50.8652 23.94C51.2612 23.94 51.7532 23.838 52.3412 23.634C52.9292 23.418 53.4572 23.088 53.9252 22.644V18.54C53.0852 18.576 52.2452 18.714 51.4052 18.954C50.5652 19.194 49.8632 19.548 49.2992 20.016C48.7352 20.484 48.4532 21.072 48.4532 21.78C48.4532 22.512 48.6452 23.058 49.0292 23.418C49.4132 23.766 50.0252 23.94 50.8652 23.94ZM78.5869 27.36C76.5229 27.36 74.7889 26.94 73.3849 26.1C71.9929 25.248 70.9369 24.12 70.2169 22.716C69.5089 21.3 69.1549 19.74 69.1549 18.036C69.1549 16.32 69.5089 14.754 70.2169 13.338C70.9249 11.91 71.9869 10.77 73.4029 9.918C74.8189 9.066 76.5949 8.64 78.7309 8.64C79.7389 8.64 80.6509 8.754 81.4669 8.982C82.2829 9.198 82.9789 9.468 83.5549 9.792L83.1949 13.392C82.6429 13.104 82.0189 12.864 81.3229 12.672C80.6389 12.48 79.9189 12.384 79.1629 12.384C77.4349 12.384 76.0969 12.906 75.1489 13.95C74.2009 14.994 73.7269 16.356 73.7269 18.036C73.7269 19.632 74.2129 20.976 75.1849 22.068C76.1569 23.148 77.4709 23.688 79.1269 23.688C79.8349 23.688 80.5309 23.586 81.2149 23.382C81.9109 23.166 82.5829 22.872 83.2309 22.5L83.6269 26.28C83.0029 26.604 82.2469 26.862 81.3589 27.054C80.4829 27.258 79.5589 27.36 78.5869 27.36ZM93.7817 27V-2.14577e-06H98.2457V16.38L103.826 9H108.866L102.314 17.64L109.01 27H103.97L98.2457 19.008V27H93.7817ZM126.393 27.36C124.221 27.36 122.409 26.928 120.957 26.064C119.517 25.188 118.437 24.036 117.717 22.608C116.997 21.168 116.637 19.596 116.637 17.892C116.637 16.248 116.973 14.73 117.645 13.338C118.329 11.946 119.325 10.83 120.633 9.99C121.941 9.138 123.537 8.712 125.421 8.712C127.149 8.712 128.589 9.066 129.741 9.774C130.893 10.482 131.757 11.43 132.333 12.618C132.909 13.794 133.197 15.096 133.197 16.524C133.197 16.92 133.173 17.322 133.125 17.73C133.077 18.126 133.005 18.54 132.909 18.972H121.281C121.449 20.088 121.797 20.994 122.325 21.69C122.865 22.374 123.519 22.878 124.287 23.202C125.067 23.526 125.901 23.688 126.789 23.688C127.833 23.688 128.805 23.556 129.705 23.292C130.605 23.016 131.433 22.656 132.189 22.212L132.405 25.992C131.721 26.352 130.869 26.67 129.849 26.946C128.829 27.222 127.677 27.36 126.393 27.36ZM121.389 15.948H128.661C128.661 15.408 128.559 14.868 128.355 14.328C128.151 13.776 127.809 13.314 127.329 12.942C126.861 12.57 126.225 12.384 125.421 12.384C124.269 12.384 123.363 12.72 122.703 13.392C122.043 14.064 121.605 14.916 121.389 15.948ZM143.444 27V9H147.62L147.728 10.908C148.184 10.404 148.826 9.9 149.654 9.396C150.482 8.892 151.388 8.64 152.372 8.64C152.66 8.64 152.924 8.664 153.164 8.712L152.84 13.104C152.576 13.032 152.312 12.984 152.048 12.96C151.796 12.936 151.544 12.924 151.292 12.924C150.536 12.924 149.846 13.098 149.222 13.446C148.598 13.794 148.16 14.22 147.908 14.724V27H143.444Z" fill="#00AAAA"/>
</svg>